<svg width="55" height="55" viewBox="0 0 55 55" fill="none" xmlns="http://www.w3.org/2000/svg">
<path d="M55 27.5C55 28.3752 54.6523 29.2146 54.0334 29.8335C53.4146 30.4523 52.5752 30.8 51.7 30.8H30.8V51.7C30.8 52.5752 30.4523 53.4146 29.8335 54.0334C29.2146 54.6523 28.3752 55 27.5 55C26.6248 55 25.7854 54.6523 25.1665 54.0334C24.5477 53.4146 24.2 52.5752 24.2 51.7V30.8H3.3C2.42479 30.8 1.58542 30.4523 0.966548 29.8335C0.347678 29.2146 0 28.3752 0 27.5C0 26.6248 0.347678 25.7854 0.966548 25.1665C1.58542 24.5477 2.42479 24.2 3.3 24.2H24.2V3.3C24.2 2.42479 24.5477 1.58542 25.1665 0.966548C25.7854 0.347678 26.6248 0 27.5 0C28.3752 0 29.2146 0.347678 29.8335 0.966548C30.4523 1.58542 30.8 2.42479 30.8 3.3V24.2H51.7C52.5752 24.2 53.4146 24.5477 54.0334 25.1665C54.6523 25.7854 55 26.6248 55 27.5Z" fill="#5E2424"/>
</svg>
