<svg xmlns="http://www.w3.org/2000/svg" data-name="Layer 1" viewBox="0 0 64 80" x="0px" y="0px"><polygon points="22 35 17 35 17 39 24 39 28.341 35.33 24.977 32.484 22 35"/><polygon points="43 35 37 35 24 24 17 24 17 28 22 28 35 39 43 39 43 41 49 37 43 33 43 35"/><path d="M60.39984,26.03217a2.988,2.988,0,0,1-2.81879-2.15467,26.64582,26.64582,0,0,0-1.75048-4.21411,2.99014,2.99014,0,0,1,.46881-3.52283l1.43145-1.43145a31.1625,31.1625,0,0,0-8.43975-8.43988L47.85944,7.70068a2.9903,2.9903,0,0,1-3.52271.46888A26.6369,26.6369,0,0,0,40.12256,6.419a2.98818,2.98818,0,0,1-2.15473-2.81885V1.5871a30.62484,30.62484,0,0,0-11.93566,0V3.60016A2.98818,2.98818,0,0,1,23.87744,6.419a26.6369,26.6369,0,0,0-4.21417,1.75055,2.9903,2.9903,0,0,1-3.52271-.46888L14.70892,6.26923a31.1625,31.1625,0,0,0-8.43975,8.43988l1.43145,1.43145a2.99014,2.99014,0,0,1,.46881,3.52283A26.64582,26.64582,0,0,0,6.419,23.8775a2.988,2.988,0,0,1-2.81879,2.15467H1.587a30.6276,30.6276,0,0,0,0,11.9356H3.60016A2.988,2.988,0,0,1,6.419,40.1225a26.64985,26.64985,0,0,0,1.75048,4.21405,2.99015,2.99015,0,0,1-.46881,3.52283L6.26917,49.29083a31.16356,31.16356,0,0,0,8.43975,8.43994l1.43164-1.43158a2.99038,2.99038,0,0,1,3.52271-.46875,26.64229,26.64229,0,0,0,4.21417,1.75049,2.98831,2.98831,0,0,1,2.15473,2.81891v2.01294a30.6187,30.6187,0,0,0,11.93566,0V60.39984a2.98831,2.98831,0,0,1,2.15473-2.81891,26.64229,26.64229,0,0,0,4.21417-1.75049,2.99038,2.99038,0,0,1,3.52271.46875l1.43164,1.43158a31.16356,31.16356,0,0,0,8.43975-8.43994l-1.43145-1.43145a2.99015,2.99015,0,0,1-.46881-3.52283,26.64985,26.64985,0,0,0,1.75048-4.214,2.988,2.988,0,0,1,2.81879-2.15473H62.413a30.6276,30.6276,0,0,0,0-11.9356ZM32,53.7A21.7,21.7,0,1,1,53.7,32,21.7,21.7,0,0,1,32,53.7Z"/><polygon points="37.5 28 40.5 28 40.5 30 46.5 26 40.5 22 40.5 24 35.5 24 31.159 27.67 34.523 30.516 37.5 28"/><text x="0" y="79" fill="#000000" font-size="5px" font-weight="bold" font-family="'Helvetica Neue', Helvetica, Arial-Unicode, Arial, Sans-serif">Created by Nithinan Tatah</text><text x="0" y="84" fill="#000000" font-size="5px" font-weight="bold" font-family="'Helvetica Neue', Helvetica, Arial-Unicode, Arial, Sans-serif">from the Noun Project</text></svg>