<svg width="30" height="39" viewBox="0 0 30 39" fill="none" xmlns="http://www.w3.org/2000/svg">
<path id="Umidade" d="M22.8409 6.77519C20.7354 4.34354 18.3657 2.15391 15.7756 0.246777C15.5463 0.0861589 15.2731 0 14.9932 0C14.7132 0 14.4401 0.0861589 14.2108 0.246777C11.6254 2.15471 9.26032 4.34431 7.15909 6.77519C2.4733 12.1564 0 17.8292 0 23.1814C0 27.1597 1.58035 30.975 4.3934 33.788C7.20644 36.6011 11.0218 38.1814 15 38.1814C18.9782 38.1814 22.7936 36.6011 25.6066 33.788C28.4196 30.975 30 27.1597 30 23.1814C30 17.8292 27.5267 12.1564 22.8409 6.77519ZM24.5199 24.7735C24.1663 26.7485 23.2161 28.5679 21.7971 29.9865C20.3782 31.4051 18.5587 32.355 16.5835 32.7081C16.5108 32.7198 16.4373 32.7261 16.3636 32.7269C16.0216 32.7268 15.6921 32.5982 15.4404 32.3665C15.1887 32.1348 15.0334 31.817 15.005 31.4761C14.9767 31.1353 15.0775 30.7962 15.2875 30.5262C15.4975 30.2561 15.8013 30.0749 16.1386 30.0184C18.9631 29.5428 21.3597 27.1462 21.8386 24.3167C21.8992 23.96 22.099 23.642 22.3941 23.4326C22.6891 23.2232 23.0552 23.1396 23.4119 23.2002C23.7686 23.2608 24.0866 23.4606 24.296 23.7556C24.5054 24.0507 24.589 24.4168 24.5284 24.7735H24.5199Z" fill="#DDB247"/>
</svg>
