<svg xmlns="http://www.w3.org/2000/svg" xmlns:xlink="http://www.w3.org/1999/xlink" version="1.1" x="0px" y="0px" viewBox="0 0 164 205" enable-background="new 0 0 164 164" xml:space="preserve"><g><polygon fill-rule="evenodd" clip-rule="evenodd" fill="#000000" points="9.243,155.757 33.159,155.757 33.159,147.717    45.416,147.717 45.416,155.757 76.211,155.757 76.211,147.717 88.469,147.717 88.469,155.757 119.264,155.757 119.264,147.717    131.521,147.717 131.521,155.757 164.209,155.757 164.209,164.528 9.243,164.528 0.471,164.528 0.471,155.757 0.471,0.791    9.243,0.791 9.243,33.478 17.284,33.478 17.284,45.736 9.243,45.736 9.243,76.531 17.284,76.531 17.284,88.788 9.243,88.788    9.243,119.584 17.284,119.584 17.284,131.841 9.243,131.841  "/><path fill-rule="evenodd" clip-rule="evenodd" fill="#000000" d="M24.969,110.063c-0.224-4.396,4.527-4.729,7.607-3.383   c5.47,2.391,7.425,9.908,12.438,13.125c4.839,3.105,9.123-2.889,11.436-6.493c11.88-18.513,26.324-17.089,41.715-2.902   c9.131,8.416,14.45,7.894,18.878,3.09c14.436-15.661,13.521-56.327,39.034-60.613c2.093-0.349,4.073,1.066,4.422,3.159   c0.35,2.093-1.065,4.074-3.158,4.422c-19.126,3.212-20.886,43.855-34.142,58.236c-7.564,8.206-16.817,9.731-30.239-2.64   c-11.776-10.855-20.836-12.946-30.042,1.398c-4.862,7.578-12.816,14.74-22.056,8.811c-4.712-3.024-6.421-7.002-9.769-11.049   C28.76,112.4,25.184,114.272,24.969,110.063z"/></g><text x="0" y="179" fill="#000000" font-size="5px" font-weight="bold" font-family="'Helvetica Neue', Helvetica, Arial-Unicode, Arial, Sans-serif">Created by Aleksandr Vector</text><text x="0" y="184" fill="#000000" font-size="5px" font-weight="bold" font-family="'Helvetica Neue', Helvetica, Arial-Unicode, Arial, Sans-serif">from the Noun Project</text></svg>