<svg xmlns="http://www.w3.org/2000/svg" viewBox="0 0 32 40" x="0px" y="0px"><title>alert</title><g data-name="4"><path d="M27,22H25.87L24,8.86A1,1,0,0,0,23,8H9a1,1,0,0,0-1,.86L6.13,22H5a1,1,0,0,0-1,1v5a1,1,0,0,0,1,1H27a1,1,0,0,0,1-1V23A1,1,0,0,0,27,22ZM9.87,10H22.13l1.71,12H8.15ZM26,27H6V24H26ZM13,12.12l-1,8A1,1,0,0,1,11,21h-.12A1,1,0,0,1,10,19.88l1-8a1,1,0,1,1,2,.25ZM15,6V3a1,1,0,0,1,2,0V6a1,1,0,0,1-2,0Zm9.45.83a1,1,0,0,1-.28-1.39l2-3a1,1,0,0,1,1.66,1.11l-2,3a1,1,0,0,1-1.39.28ZM4.17,3.55A1,1,0,0,1,5.83,2.45l2,3A1,1,0,1,1,6.17,6.55Z"/></g><text x="0" y="47" fill="#000000" font-size="5px" font-weight="bold" font-family="'Helvetica Neue', Helvetica, Arial-Unicode, Arial, Sans-serif">Created by pixiodesign</text><text x="0" y="52" fill="#000000" font-size="5px" font-weight="bold" font-family="'Helvetica Neue', Helvetica, Arial-Unicode, Arial, Sans-serif">from the Noun Project</text></svg>