<svg xmlns:dc="http://purl.org/dc/elements/1.1/" xmlns:cc="http://creativecommons.org/ns#" xmlns:rdf="http://www.w3.org/1999/02/22-rdf-syntax-ns#" xmlns:svg="http://www.w3.org/2000/svg" xmlns="http://www.w3.org/2000/svg" xmlns:sodipodi="http://sodipodi.sourceforge.net/DTD/sodipodi-0.dtd" xmlns:inkscape="http://www.inkscape.org/namespaces/inkscape" version="1.1" x="0px" y="0px" viewBox="0 0 100 125"><g transform="translate(0,-952.36218)"><path style="text-indent:0;text-transform:none;direction:ltr;block-progression:tb;baseline-shift:baseline;color:#000000;enable-background:accumulate;" d="m 53.010433,957.36207 c -13.7834,0 -25.000001,11.2165 -25.000001,25 0,13.7834 11.216601,25.00003 25.000001,25.00003 13.783499,0 24.999999,-11.21663 24.999999,-25.00003 0,-13.7835 -11.2165,-25 -24.999999,-25 z m 0,4 c 11.621699,0 20.999999,9.3783 20.999999,21 0,11.6216 -9.3783,21.00003 -20.999999,21.00003 -11.6216,0 -21.000001,-9.37843 -21.000001,-21.00003 0,-11.6217 9.378401,-21 21.000001,-21 z m 0,6 c -1.1045,0 -2,0.8954 -2,2 l 0,1.1875 c -1.3185,0.2566 -2.5255,0.7805 -3.5312,1.5937 -1.4965,1.2104 -2.4688,3.1279 -2.4688,5.2188 0,2.2768 1.3484,4.0903 2.8438,5 1.0636,0.6471 2.1262,1.0436 3.1562,1.4062 l 0,6.1563 c -1.0641,-0.4706 -1.8643,-1.2427 -2.2812,-1.9375 a 2.0044326,2.0044326 0 0 0 -3.4376,2.0625 c 1.0868,1.8112 3.0981,3.4712 5.7188,4.0625 l 0,1.25 c 0,1.1046 0.8955,2 2,2 1.1046,0 2,-0.8954 2,-2 l 0,-1.1875 c 1.3191,-0.2658 2.5252,-0.8113 3.5312,-1.625 1.496499,-1.2104 2.468799,-3.0966 2.468799,-5.1875 0,-2.2768 -1.3483,-4.1216 -2.843799,-5.0312 -1.0636,-0.647 -2.1263,-1.0436 -3.1562,-1.4063 l 0,-6.125 c 1.064,0.4614 1.8645,1.2115 2.2812,1.9063 a 2.0044583,2.0044583 0 1 0 3.437599,-2.0626 c -1.0868,-1.8109 -3.098199,-3.4478 -5.718799,-4.0312 l 0,-1.25 c 0,-1.1046 -0.8954,-2 -2,-2 z m -2,7.3438 0,4.75 c -0.418,-0.1669 -0.7904,-0.3345 -1.0625,-0.5 -0.7696,-0.4682 -0.9375,-0.5432 -0.9375,-1.5938 0,-0.9383 0.3417,-1.5613 1,-2.0938 0.27,-0.2182 0.6098,-0.4122 1,-0.5624 z m 4,10.5312 c 0.4179,0.1669 0.7904,0.3345 1.0625,0.5 0.7696,0.4682 0.9375,0.5744 0.9375,1.625 0,0.9383 -0.3418,1.5301 -1,2.0625 -0.27,0.2184 -0.6099,0.4061 -1,0.5625 l 0,-4.75 z m -45.0938009,8.0938 c -0.7858,0.03 -1.5401,0.5749 -1.8124,1.3124 -0.2726,0.7376 -0.047,1.623 0.5312,2.1563 l 33.0000009,31.00003 c 1.0842,0.7647 2.1512,0.5545 3,-0.2813 l 12.375,-12.3437 28.187499,28.1875 -13.1875,0 c -1.0566,-0.015 -2.0312,0.9433 -2.0312,2 0,1.0567 0.9746,2.0149 2.0312,2 l 18,0 c 1.0472,-10e-5 1.9999,-0.9528 2,-2 l 0,-18 c 0.024,-1.1345 -1.0908,-2.1555 -2.2188,-2.0312 -0.9827,0.1079 -1.8024,1.0428 -1.7812,2.0312 l 0,13.1562 -29.593799,-29.5937 c -0.4166,-0.4268 -1.0314,-0.6514 -1.625,-0.5937 -0.6022,0.054 -1.1717,0.3984 -1.5,0.9062 l -12.3124,12.3125 -31.593801,-29.65633 c -0.3869,-0.375 -0.9304,-0.5832 -1.4687999,-0.5624 z" fill="#000000" fill-opacity="1" stroke="none" marker="none" visibility="visible" display="inline" overflow="visible"/></g><text x="0" y="115" fill="#000000" font-size="5px" font-weight="bold" font-family="'Helvetica Neue', Helvetica, Arial-Unicode, Arial, Sans-serif">Created by Rockicon</text><text x="0" y="120" fill="#000000" font-size="5px" font-weight="bold" font-family="'Helvetica Neue', Helvetica, Arial-Unicode, Arial, Sans-serif">from the Noun Project</text></svg>