<svg xmlns="http://www.w3.org/2000/svg" viewBox="0 0 100 125" x="0px" y="0px"><title>Arrow</title><g data-name="Connection, mesh, network, network topology, web, web mesh icon"><path d="M74.06,13.75A12.2,12.2,0,0,0,62,24.44H50a1.5,1.5,0,0,0-1.5,1.5V39.3H38.06a12.24,12.24,0,1,0-.05,3H48.5V72.71H38.06a12.24,12.24,0,1,0-.05,3H50a1.5,1.5,0,0,0,1.5-1.5s0,0,0-.07,0-.06,0-.08V27.44H62A12.19,12.19,0,1,0,74.06,13.75Z"/></g><text x="0" y="115" fill="#000000" font-size="5px" font-weight="bold" font-family="'Helvetica Neue', Helvetica, Arial-Unicode, Arial, Sans-serif">Created by Manglayang studio</text><text x="0" y="120" fill="#000000" font-size="5px" font-weight="bold" font-family="'Helvetica Neue', Helvetica, Arial-Unicode, Arial, Sans-serif">from the Noun Project</text></svg>