<svg xmlns="http://www.w3.org/2000/svg" data-name="Layer 1" viewBox="0 0 100 125" x="0px" y="0px"><path d="M51.062,31.081a1.445,1.445,0,0,0-1.27-.745H43.671a1.39,1.39,0,0,0-.373.055A1.468,1.468,0,0,0,42.2,31.8v6.549a18.29,18.29,0,0,0-3.427,1.161A17.267,17.267,0,0,0,36.41,40.75l-4.621-4.621a1.46,1.46,0,0,0-2.081,0l-1.2,1.205-3.12,3.121a1.474,1.474,0,0,0-.318,1.609,1.559,1.559,0,0,0,.318.46l3.427,3.428.34.339.854.866c-.121.186-.23.383-.34.58a19.241,19.241,0,0,0-2.058,5.213H21.068A1.467,1.467,0,0,0,19.6,54.417v6.122a1.467,1.467,0,0,0,1.468,1.467h6.538a19.21,19.21,0,0,0,2.4,5.8l-.11.11-4.511,4.511a1.467,1.467,0,0,0,0,2.07l4.325,4.337a1.5,1.5,0,0,0,2.081,0l4.621-4.632A19.49,19.49,0,0,0,42.2,76.615v6.538a1.472,1.472,0,0,0,1.468,1.456h6.121a1.465,1.465,0,0,0,1.468-1.456V76.615a19.675,19.675,0,0,0,5.8-2.409l4.621,4.632a1.5,1.5,0,0,0,2.081,0L68.08,74.5a1.447,1.447,0,0,0,0-2.07L63.459,67.81a19.259,19.259,0,0,0,2.409-5.8h6.538a1.467,1.467,0,0,0,1.467-1.467V54.417a1.467,1.467,0,0,0-1.467-1.467H65.868a19.376,19.376,0,0,0-2.409-5.8l4.621-4.622a1.446,1.446,0,0,0,0-2.069l-4.314-4.326a1.46,1.46,0,0,0-2.081,0L57.064,40.75a19.363,19.363,0,0,0-5.8-2.4V31.8A1.343,1.343,0,0,0,51.062,31.081ZM57.611,52.95c0,.011.011.022.011.043a11.78,11.78,0,0,1,0,8.969c0,.022-.011.033-.011.044a11.94,11.94,0,0,1-6.351,6.352h-.033a11.808,11.808,0,0,1-8.98,0H42.2a11.883,11.883,0,0,1-6.34-6.352c-.011-.011-.011-.022-.011-.044a11.494,11.494,0,0,1-.887-4.479A11.866,11.866,0,0,1,35.1,55.7a11.112,11.112,0,0,1,.723-2.617c.011-.033.022-.055.033-.088s0-.032.011-.043a11.8,11.8,0,0,1,2.42-3.669,9.612,9.612,0,0,1,.931-.854A11.417,11.417,0,0,1,42.2,46.609a.136.136,0,0,0,.033-.022,10.886,10.886,0,0,1,1.3-.449,11.86,11.86,0,0,1,3.2-.438,11.542,11.542,0,0,1,3.855.657,6.228,6.228,0,0,1,.635.23c.011,0,.022.011.033.022A11.843,11.843,0,0,1,57.611,52.95ZM21.021,23.526a1.028,1.028,0,0,1,.222-1.117l2.246-2.246.759-.77a1.039,1.039,0,0,1,1.445,0l3.2,3.216a11.065,11.065,0,0,1,1.645-.854,11.547,11.547,0,0,1,2.383-.812V16.4a1.031,1.031,0,0,1,1.023-1.023H38.2A1.015,1.015,0,0,1,39.211,16.4v4.545a13.427,13.427,0,0,1,4.028,1.666l3.227-3.216a1.025,1.025,0,0,1,1.434,0l3,3.016a.988.988,0,0,1,0,1.434l-3.206,3.2c.021.042.053.085.074.127H43.671a4.747,4.747,0,0,0-2.457.706,7.473,7.473,0,0,0-2-1.2c-.011-.01-.011-.01-.021-.01a8.267,8.267,0,0,0-6.243,0,.034.034,0,0,0-.021.01,8.182,8.182,0,0,0-2.72,1.846c-.095.105-.19.21-.274.316-.032-.042-.064-.1-.095-.137A4.2,4.2,0,0,0,27.042,27L23.9,26.5l-.042-.042-2.615-2.615A1.012,1.012,0,0,1,21.021,23.526ZM15.4,63.733a15.1,15.1,0,0,1-4.039-2.467l-3.986,2.9a1.121,1.121,0,0,1-1.55-.253l-2.72-3.744a1.1,1.1,0,0,1,.253-1.55L7.345,55.73a14.836,14.836,0,0,1-1.1-4.619l-4.882-.78a1.106,1.106,0,0,1-.918-1.255l.717-4.566a1.136,1.136,0,0,1,1.287-.938l4.872.791a14.252,14.252,0,0,1,2.488-4.049l-2.91-4a1.112,1.112,0,0,1,.242-1.55l3.754-2.71a1.1,1.1,0,0,1,1.54.243l2.889,4.007a16.341,16.341,0,0,1,1.9-.665,16.014,16.014,0,0,1,2.721-.443l.664-4.123.116-.759a1.1,1.1,0,0,1,1.265-.917l1.245.2,3.321.517a1.108,1.108,0,0,1,.918,1.265L27,34.366l-3.859,3.849a4.546,4.546,0,0,0-1.329,2.921,8.952,8.952,0,0,0-2.8.222h-.042a8.976,8.976,0,0,0-5.483,3.985.038.038,0,0,1-.011.022,8.809,8.809,0,0,0-1.065,6.685v.042a8.921,8.921,0,0,0,1.455,3.132,8.77,8.77,0,0,0,2.531,2.351c.011.011.021.011.021.021s.011.011.021.011v2.931a4.636,4.636,0,0,0,4.629,4.63h1.044l-.717,4.523a1.114,1.114,0,0,1-1.265.918l-4.566-.717a1.123,1.123,0,0,1-.928-1.287ZM80.146,87.1a47.575,47.575,0,0,1-65.779-9.195A39.658,39.658,0,0,0,78.4,31.171l-5.673,4.165A1.763,1.763,0,0,1,69.917,34L68.589,5.5a1.758,1.758,0,0,1,2.362-1.729l26.8,9.785A1.76,1.76,0,0,1,98.2,16.62l-7.033,5.156A47.564,47.564,0,0,1,80.146,87.1Z"/><text x="0" y="115" fill="#000000" font-size="5px" font-weight="bold" font-family="'Helvetica Neue', Helvetica, Arial-Unicode, Arial, Sans-serif">Created by mangunkarsa</text><text x="0" y="120" fill="#000000" font-size="5px" font-weight="bold" font-family="'Helvetica Neue', Helvetica, Arial-Unicode, Arial, Sans-serif">from the Noun Project</text></svg>