<svg xmlns="http://www.w3.org/2000/svg" xmlns:xlink="http://www.w3.org/1999/xlink" xml:space="preserve" version="1.1" style="shape-rendering:geometricPrecision;text-rendering:geometricPrecision;image-rendering:optimizeQuality;" viewBox="0 0 333.33 416.66249999999997" x="0px" y="0px" fill-rule="evenodd" clip-rule="evenodd"><defs><style type="text/css">
   
    .fil0 {fill:black}
   
  </style></defs><g><path class="fil0" d="M102.21 3.41l128.91 -0c2.15,0 4.09,0.89 5.48,2.31l91.08 91.08c1.5,1.49 2.24,3.45 2.24,5.41l0 128.91c0,2.15 -0.89,4.09 -2.31,5.48l-91.08 91.08c-1.49,1.49 -3.45,2.24 -5.41,2.24l-128.91 0c-2.15,0 -4.09,-0.89 -5.48,-2.31l-91.08 -91.08c-1.49,-1.5 -2.24,-3.45 -2.24,-5.41l-0 -128.91c0,-2.15 0.89,-4.09 2.31,-5.48l91.08 -91.08c1.5,-1.5 3.45,-2.24 5.41,-2.24zm64.46 170.09l8.03 0 13.93 -90.81 -43.92 0 13.93 90.81 8.03 0zm0 38.84c7.4,0 14.1,3 18.95,7.85 4.85,4.85 7.85,11.56 7.85,18.95 0,7.38 -3,14.07 -7.85,18.93l-0.02 0.02 0.02 0.02c-4.85,4.85 -11.55,7.85 -18.95,7.85 -7.4,0 -14.1,-3 -18.95,-7.85 -0.16,-0.16 -0.31,-0.32 -0.45,-0.49 -4.59,-4.81 -7.4,-11.31 -7.4,-18.46 0,-7.4 3,-14.1 7.85,-18.95 0.16,-0.16 0.32,-0.31 0.49,-0.45 4.81,-4.59 11.31,-7.4 18.46,-7.4zm8.13 18.67c-2.08,-2.08 -4.96,-3.37 -8.13,-3.37 -3.03,0 -5.79,1.16 -7.84,3.05l-0.3 0.31c-2.08,2.08 -3.37,4.96 -3.37,8.13 0,3.04 1.16,5.79 3.06,7.84l0.31 0.3c2.08,2.08 4.96,3.37 8.13,3.37 3.18,0 6.05,-1.29 8.13,-3.37l0.01 0.02c2.07,-2.08 3.35,-4.96 3.35,-8.15 0,-3.17 -1.29,-6.05 -3.37,-8.13zm6.46 -42.21l-29.19 0c-3.72,-0 -6.99,-2.72 -7.56,-6.52l-16.22 -105.78c-0.09,-0.48 -0.14,-0.96 -0.14,-1.47 0,-4.23 3.43,-7.65 7.65,-7.65l61.75 0c0.37,0 0.75,0.03 1.13,0.09 4.18,0.63 7.06,4.52 6.43,8.7l-16.24 105.85c-0.43,3.82 -3.67,6.79 -7.6,6.79z"/></g><text x="0" y="348.33" fill="#000000" font-size="5px" font-weight="bold" font-family="'Helvetica Neue', Helvetica, Arial-Unicode, Arial, Sans-serif">Created by ARISO</text><text x="0" y="353.33" fill="#000000" font-size="5px" font-weight="bold" font-family="'Helvetica Neue', Helvetica, Arial-Unicode, Arial, Sans-serif">from the Noun Project</text></svg>