<svg xmlns="http://www.w3.org/2000/svg" data-name="Layer 1" viewBox="0 0 79.88 112.2" x="0px" y="0px"><title>section</title><path d="M1121.47,48.23l-28-14.91a2,2,0,0,0-2.94,1.77V65.26a2,2,0,0,0,3,1.76l28-15.27A2,2,0,0,0,1121.47,48.23Z" transform="translate(-1090.5 -5.31)"/><path d="M1095.33,24.46a1.26,1.26,0,0,0,0,2.18L1131,47.85a2.5,2.5,0,0,1,0,4.31l-36.41,21.18a1.29,1.29,0,0,0,0,2.21h0L1126.43,94a8,8,0,0,0,8,0l31.93-18.44a8,8,0,0,0,4-6.94V31.76a8,8,0,0,0-4-6.94L1134.44,6.38a8,8,0,0,0-8,0Z" transform="translate(-1090.5 -5.31)"/><text x="0" y="104.76" fill="#000000" font-size="5px" font-weight="bold" font-family="'Helvetica Neue', Helvetica, Arial-Unicode, Arial, Sans-serif">Created by Bryan McCloskey</text><text x="0" y="109.76" fill="#000000" font-size="5px" font-weight="bold" font-family="'Helvetica Neue', Helvetica, Arial-Unicode, Arial, Sans-serif">from the Noun Project</text></svg>