<svg width="18" height="39" viewBox="0 0 18 39" fill="none" xmlns="http://www.w3.org/2000/svg">
<path id="Temp" d="M14.1429 22.3729V5.32431C14.1429 3.96034 13.601 2.65224 12.6365 1.68777C11.6721 0.723293 10.364 0.181458 9 0.181458C7.63603 0.181458 6.32792 0.723293 5.36345 1.68777C4.39898 2.65224 3.85714 3.96034 3.85714 5.32431V22.3729C2.28473 23.4678 1.10279 25.0359 0.48333 26.8491C-0.136128 28.6622 -0.160763 30.6257 0.41301 32.4539C0.986783 34.282 2.12902 35.8793 3.67346 37.0133C5.21791 38.1473 7.08395 38.7588 9 38.7588C10.916 38.7588 12.7821 38.1473 14.3265 37.0133C15.871 35.8793 17.0132 34.282 17.587 32.4539C18.1608 30.6257 18.1361 28.6622 17.5167 26.8491C16.8972 25.0359 15.7153 23.4678 14.1429 22.3729ZM9 2.75289C9.68198 2.75289 10.336 3.0238 10.8183 3.50604C11.3005 3.98828 11.5714 4.64233 11.5714 5.32431V11.7529H6.42857V5.32431C6.42857 4.64233 6.69949 3.98828 7.18173 3.50604C7.66396 3.0238 8.31801 2.75289 9 2.75289Z" fill="#DDB247"/>
</svg>
