<svg width="48" height="48" viewBox="0 0 48 48" fill="none" xmlns="http://www.w3.org/2000/svg">
<path id="Vector" d="M34.1539 22.1538C34.1539 24.1621 33.5583 26.1252 32.4426 27.795C31.3269 29.4648 29.7411 30.7662 27.8857 31.5348C26.0303 32.3033 23.9887 32.5044 22.0191 32.1126C20.0494 31.7208 18.2402 30.7537 16.8202 29.3337C15.4001 27.9137 14.4331 26.1044 14.0413 24.1348C13.6495 22.1651 13.8506 20.1235 14.6191 18.2681C15.3876 16.4128 16.689 14.8269 18.3588 13.7112C20.0286 12.5955 21.9918 12 24 12C26.692 12.0031 29.2729 13.0738 31.1765 14.9774C33.08 16.8809 34.1508 19.4618 34.1539 22.1538ZM48 24C48 28.7467 46.5924 33.3869 43.9553 37.3337C41.3181 41.2805 37.5698 44.3566 33.1844 46.1731C28.799 47.9896 23.9734 48.4649 19.3178 47.5388C14.6623 46.6128 10.3859 44.327 7.02945 40.9706C3.67299 37.6141 1.38721 33.3377 0.461164 28.6822C-0.464881 24.0266 0.0103988 19.201 1.8269 14.8156C3.6434 10.4302 6.71954 6.68188 10.6663 4.04473C14.6131 1.40758 19.2533 0 24 0C30.3631 0.00671958 36.4637 2.53744 40.9631 7.03686C45.4626 11.5363 47.9933 17.6369 48 24ZM44.3077 24C44.3047 21.2666 43.7506 18.5619 42.6783 16.0476C41.6061 13.5333 40.0378 11.2611 38.0673 9.36677C36.0967 7.47248 33.7644 5.99505 31.2097 5.02283C28.6551 4.05062 25.9306 3.60358 23.1992 3.70846C12.33 4.12846 3.66232 13.1815 3.69232 24.0577C3.70274 29.0089 5.52883 33.7843 8.82463 37.4792C10.1668 35.5325 11.8718 33.8628 13.8462 32.5615C14.0145 32.4504 14.2146 32.3974 14.4159 32.4107C14.6172 32.424 14.8086 32.503 14.9608 32.6354C17.4697 34.8054 20.6759 35.9997 23.9931 35.9997C27.3102 35.9997 30.5165 34.8054 33.0254 32.6354C33.1776 32.503 33.369 32.424 33.5703 32.4107C33.7716 32.3974 33.9717 32.4504 34.14 32.5615C36.1169 33.8621 37.8242 35.5318 39.1685 37.4792C42.4806 33.7708 44.3102 28.9721 44.3077 24Z" fill="#DDB247"/>
</svg>
