<svg width="40" height="41" viewBox="0 0 40 41" fill="none" xmlns="http://www.w3.org/2000/svg">
<path id="Vector" d="M20.2617 0.8815C16.3866 0.8815 12.5986 2.04575 9.37657 4.22703C6.15455 6.40831 3.6433 9.50864 2.16037 13.136C0.677435 16.7633 0.289432 20.7547 1.04542 24.6055C1.80142 28.4562 3.66745 31.9934 6.40755 34.7696C9.14764 37.5459 12.6387 39.4365 16.4394 40.2025C20.24 40.9684 24.1794 40.5753 27.7596 39.0728C31.3397 37.5703 34.3996 35.026 36.5525 31.7614C38.7054 28.4969 39.8545 24.6589 39.8545 20.7327C39.849 15.4695 37.783 10.4235 34.1099 6.70192C30.4367 2.9803 25.4564 0.887058 20.2617 0.8815ZM10.1036 33.9987C11.1939 32.271 12.6959 30.8492 14.4712 29.8644C16.2464 28.8795 18.2378 28.3633 20.2617 28.3633C22.2857 28.3633 24.2771 28.8795 26.0523 29.8644C27.8275 30.8492 29.3295 32.271 30.4198 33.9987C27.5155 36.2872 23.9411 37.5298 20.2617 37.5298C16.5824 37.5298 13.008 36.2872 10.1036 33.9987ZM14.2332 19.2057C14.2332 17.9976 14.5868 16.8167 15.2492 15.8122C15.9116 14.8078 16.8531 14.0249 17.9547 13.5626C19.0563 13.1003 20.2684 12.9793 21.4378 13.215C22.6073 13.4507 23.6814 14.0324 24.5246 14.8866C25.3677 15.7409 25.9418 16.8292 26.1744 18.0141C26.4071 19.1989 26.2877 20.427 25.8314 21.5431C25.3751 22.6592 24.6024 23.6132 23.611 24.2844C22.6196 24.9555 21.4541 25.3138 20.2617 25.3138C18.6629 25.3138 17.1295 24.6702 15.9989 23.5247C14.8683 22.3793 14.2332 20.8256 14.2332 19.2057ZM32.6504 31.8818C30.9695 29.4139 28.606 27.5047 25.857 26.3941C27.3336 25.2157 28.4111 23.6004 28.9397 21.7728C29.4682 19.9452 29.4215 17.9961 28.8061 16.1966C28.1906 14.3971 27.037 12.8367 25.5057 11.7323C23.9744 10.6279 22.1414 10.0344 20.2617 10.0344C18.3821 10.0344 16.5491 10.6279 15.0178 11.7323C13.4864 12.8367 12.3328 14.3971 11.7174 16.1966C11.1019 17.9961 11.0552 19.9452 11.5838 21.7728C12.1123 23.6004 13.1898 25.2157 14.6665 26.3941C11.9175 27.5047 9.55396 29.4139 7.87307 31.8818C5.74907 29.4618 4.36082 26.4713 3.87547 23.2704C3.39012 20.0695 3.82838 16.7947 5.13746 13.8403C6.44654 10.8859 8.57063 8.37796 11.254 6.61838C13.9373 4.8588 17.0654 3.92264 20.2617 3.92264C23.458 3.92264 26.5862 4.8588 29.2695 6.61838C31.9528 8.37796 34.0769 10.8859 35.386 13.8403C36.6951 16.7947 37.1333 20.0695 36.648 23.2704C36.1626 26.4713 34.7744 29.4618 32.6504 31.8818Z" fill="#5E2424"/>
</svg>
