<svg width="45" height="45" viewBox="0 0 45 45" fill="none" xmlns="http://www.w3.org/2000/svg">
<path id="Exit" d="M19.7986 42.2969C19.7986 43.013 19.5141 43.6997 19.0078 44.206C18.5015 44.7123 17.8148 44.9967 17.0988 44.9967H4.49967C3.30629 44.9967 2.16178 44.5227 1.31792 43.6788C0.474072 42.835 0 41.6905 0 40.4971V4.49967C0 3.30629 0.474072 2.16178 1.31792 1.31792C2.16178 0.474072 3.30629 0 4.49967 0H17.0988C17.8148 0 18.5015 0.284443 19.0078 0.790755C19.5141 1.29707 19.7986 1.98377 19.7986 2.6998C19.7986 3.41584 19.5141 4.10254 19.0078 4.60886C18.5015 5.11517 17.8148 5.39961 17.0988 5.39961H5.39961V39.5971H17.0988C17.8148 39.5971 18.5015 39.8816 19.0078 40.3879C19.5141 40.8942 19.7986 41.5809 19.7986 42.2969ZM44.2071 20.5883L35.2077 11.5889C34.7005 11.0817 34.0126 10.7968 33.2953 10.7968C32.5781 10.7968 31.8902 11.0817 31.383 11.5889C30.8758 12.0961 30.5909 12.784 30.5909 13.5013C30.5909 14.2185 30.8758 14.9064 31.383 15.4136L35.7724 19.7986H17.0988C16.3827 19.7986 15.696 20.083 15.1897 20.5893C14.6834 21.0956 14.399 21.7823 14.399 22.4984C14.399 23.2144 14.6834 23.9011 15.1897 24.4074C15.696 24.9137 16.3827 25.1982 17.0988 25.1982H35.7724L31.3807 29.5876C30.8735 30.0948 30.5886 30.7827 30.5886 31.5C30.5886 32.2172 30.8735 32.9051 31.3807 33.4123C31.8879 33.9195 32.5758 34.2045 33.2931 34.2045C34.0104 34.2045 34.6983 33.9195 35.2055 33.4123L44.2048 24.413C44.4566 24.1623 44.6565 23.8644 44.793 23.5363C44.9294 23.2082 44.9998 22.8564 45 22.5011C45.0002 22.1458 44.9303 21.7939 44.7942 21.4656C44.6581 21.1374 44.4586 20.8392 44.2071 20.5883Z" fill="#DDB247"/>
</svg>
