<svg width="30" height="30" viewBox="0 0 30 30" fill="none" xmlns="http://www.w3.org/2000/svg">
<path d="M29.4501 7.53392L22.4676 0.551451C22.2935 0.37666 22.0865 0.237973 21.8586 0.143342C21.6307 0.048712 21.3864 0 21.1396 0C20.8928 0 20.6485 0.048712 20.4206 0.143342C20.1927 0.237973 19.9857 0.37666 19.8115 0.551451L15.1821 5.1856L0.549979 19.8192C0.375132 19.9927 0.236476 20.1991 0.142065 20.4265C0.0476528 20.654 -0.000634407 20.8979 6.29316e-06 21.1442V28.1266C6.29316e-06 28.6239 0.19754 29.1008 0.549154 29.4524C0.900767 29.804 1.37766 30.0016 1.87491 30.0016H8.85738C9.35425 30.0015 9.83078 29.8043 10.1823 29.4531L29.4485 10.1853C29.6233 10.0112 29.762 9.80419 29.8567 9.57629C29.9513 9.34839 30 9.10405 30 8.85729C30 8.61053 29.9513 8.36619 29.8567 8.13829C29.762 7.91039 29.6233 7.70342 29.4485 7.52923L29.4501 7.53392ZM9.29486 28.5688C9.17871 28.6848 9.02156 28.7505 8.85738 28.7516H1.87491C1.70916 28.7516 1.5502 28.6858 1.43299 28.5686C1.31579 28.4514 1.24994 28.2924 1.24994 28.1266V21.1442C1.24988 21.0621 1.26599 20.9808 1.29736 20.9049C1.32872 20.829 1.37473 20.7601 1.43275 20.702L15.6242 6.51053L23.4895 14.3773L9.29486 28.5688ZM28.5658 9.30102L24.3738 13.493L16.5086 5.62776L20.699 1.43578C20.757 1.37767 20.826 1.33158 20.9018 1.30013C20.9777 1.26868 21.059 1.25249 21.1411 1.25249C21.2233 1.25249 21.3046 1.26868 21.3805 1.30013C21.4563 1.33158 21.5253 1.37767 21.5833 1.43578L28.5658 8.41669C28.6239 8.47473 28.67 8.54366 28.7014 8.61953C28.7329 8.6954 28.7491 8.77672 28.7491 8.85885C28.7491 8.94098 28.7329 9.02231 28.7014 9.09818C28.67 9.17405 28.6239 9.24298 28.5658 9.30102Z" fill="#DDB247"/>
</svg>
