<svg width="41" height="33" viewBox="0 0 41 33" fill="none" xmlns="http://www.w3.org/2000/svg">
<path id="passwordIcon" d="M3.58505 2.36884V30.9546C3.58505 31.3758 3.41991 31.7797 3.12596 32.0775C2.83201 32.3754 2.43333 32.5427 2.01762 32.5427C1.60191 32.5427 1.20323 32.3754 0.909284 32.0775C0.615335 31.7797 0.450195 31.3758 0.450195 30.9546V2.36884C0.450195 1.94765 0.615335 1.54371 0.909284 1.24588C1.20323 0.948056 1.60191 0.780739 2.01762 0.780739C2.43333 0.780739 2.83201 0.948056 3.12596 1.24588C3.41991 1.54371 3.58505 1.94765 3.58505 2.36884ZM20.043 13.1877L16.1245 14.4781V10.3093C16.1245 9.88813 15.9593 9.4842 15.6654 9.18637C15.3714 8.88854 14.9727 8.72123 14.557 8.72123C14.1413 8.72123 13.7426 8.88854 13.4487 9.18637C13.1547 9.4842 12.9896 9.88813 12.9896 10.3093V14.4781L9.07104 13.1877C8.6756 13.0561 8.24475 13.0891 7.87327 13.2793C7.50179 13.4695 7.22012 13.8015 7.09021 14.2021C6.9603 14.6028 6.9928 15.0393 7.18056 15.4157C7.36832 15.7921 7.69596 16.0775 8.0914 16.2091L12.01 17.4975L9.59221 20.8722C9.46444 21.0404 9.37125 21.2328 9.31814 21.4381C9.26502 21.6434 9.25307 21.8575 9.28299 22.0676C9.31291 22.2776 9.38409 22.4795 9.49232 22.6612C9.60055 22.843 9.74364 23.0009 9.91314 23.1256C10.0826 23.2504 10.2751 23.3394 10.4791 23.3875C10.6832 23.4356 10.8946 23.4418 11.1011 23.4057C11.3075 23.3696 11.5047 23.2919 11.681 23.1772C11.8573 23.0626 12.0091 22.9133 12.1275 22.7382L14.5453 19.3635L16.963 22.7382C17.0814 22.9133 17.2332 23.0626 17.4095 23.1772C17.5858 23.2919 17.783 23.3696 17.9895 23.4057C18.1959 23.4418 18.4074 23.4356 18.6114 23.3875C18.8155 23.3394 19.0079 23.2504 19.1774 23.1256C19.3469 23.0009 19.49 22.843 19.5982 22.6612C19.7065 22.4795 19.7777 22.2776 19.8076 22.0676C19.8375 21.8575 19.8255 21.6434 19.7724 21.4381C19.7193 21.2328 19.6261 21.0404 19.4983 20.8722L17.0806 17.4975L20.9992 16.2091C21.3771 16.0667 21.6864 15.7821 21.8626 15.4146C22.0388 15.047 22.0684 14.6248 21.9453 14.2358C21.8222 13.8467 21.5558 13.5206 21.2015 13.3255C20.8472 13.1303 20.4323 13.081 20.043 13.1877ZM40.8114 14.2081C40.683 13.8111 40.4053 13.4814 40.0385 13.2904C39.6718 13.0994 39.2455 13.0625 38.8521 13.1877L34.9336 14.4781V10.3093C34.9336 9.88813 34.7684 9.4842 34.4745 9.18637C34.1805 8.88854 33.7819 8.72123 33.3662 8.72123C32.9504 8.72123 32.5518 8.88854 32.2578 9.18637C31.9639 9.4842 31.7987 9.88813 31.7987 10.3093V14.4781L27.8802 13.1897C27.6844 13.1252 27.4779 13.1004 27.2727 13.1167C27.0674 13.133 26.8673 13.1901 26.6838 13.2848C26.5003 13.3794 26.3371 13.5098 26.2033 13.6684C26.0695 13.827 25.9679 14.0107 25.9042 14.2091C25.8405 14.4075 25.8161 14.6166 25.8321 14.8246C25.8482 15.0326 25.9046 15.2353 25.998 15.4212C26.0915 15.6071 26.2201 15.7726 26.3766 15.9081C26.5332 16.0436 26.7145 16.1466 26.9103 16.2111L30.8289 17.4994L28.4111 20.8741C28.2834 21.0423 28.1902 21.2348 28.1371 21.4401C28.0839 21.6454 28.072 21.8595 28.1019 22.0695C28.1318 22.2796 28.203 22.4815 28.3112 22.6632C28.4195 22.845 28.5626 23.0029 28.7321 23.1276C28.9015 23.2524 29.094 23.3414 29.298 23.3895C29.5021 23.4376 29.7136 23.4438 29.92 23.4077C30.1264 23.3716 30.3236 23.2939 30.4999 23.1792C30.6762 23.0646 30.8281 22.9153 30.9464 22.7402L33.3642 19.3654L35.782 22.7402C35.9003 22.9153 36.0522 23.0646 36.2285 23.1792C36.4048 23.2939 36.602 23.3716 36.8084 23.4077C37.0148 23.4438 37.2263 23.4376 37.4304 23.3895C37.6344 23.3414 37.8269 23.2524 37.9963 23.1276C38.1658 23.0029 38.3089 22.845 38.4172 22.6632C38.5254 22.4815 38.5966 22.2796 38.6265 22.0695C38.6564 21.8595 38.6445 21.6454 38.5913 21.4401C38.5382 21.2348 38.445 21.0423 38.3173 20.8741L35.8995 17.4994L39.8181 16.2111C40.2115 16.0783 40.5369 15.7929 40.7231 15.4175C40.9093 15.0421 40.941 14.6072 40.8114 14.2081Z" fill="#5E2424"/>
</svg>
