<?xml version="1.0" encoding="utf-8"?>
<!-- Generator: Adobe Illustrator 27.3.1, SVG Export Plug-In . SVG Version: 6.00 Build 0)  -->
<svg version="1.1" id="Camada_1" xmlns="http://www.w3.org/2000/svg" xmlns:xlink="http://www.w3.org/1999/xlink" x="0px" y="0px"
	 viewBox="0 0 182 183" style="enable-background:new 0 0 182 183;" xml:space="preserve">
<style type="text/css">
	.st0{fill:#D9D9D9;}
</style>
<g id="UserIcon">
	<g id="Vector">
		<path class="st0" d="M139.6,133.2c-7.2-12.5-18.2-21.5-31-25.8c6.4-3.8,11.3-9.7,14.1-16.6c2.8-7,3.2-14.7,1.2-21.9
			c-2-7.2-6.2-13.6-12.1-18.2s-13.1-7-20.5-7c-7.4,0-14.6,2.5-20.5,7c-5.9,4.5-10.1,10.9-12.1,18.2c-2,7.2-1.5,14.9,1.2,21.9
			c2.8,7,7.7,12.8,14.1,16.6c-12.9,4.3-23.9,13.2-31,25.8c-0.3,0.4-0.4,0.9-0.5,1.4c-0.1,0.5-0.1,1,0.1,1.5c0.1,0.5,0.3,1,0.6,1.4
			c0.3,0.4,0.7,0.7,1.1,1c0.4,0.3,0.9,0.4,1.4,0.5c0.5,0.1,1,0,1.5-0.1c0.5-0.1,0.9-0.4,1.3-0.7c0.4-0.3,0.7-0.7,1-1.2
			c8.8-15.5,24.5-24.7,41.8-24.7s33,9.3,41.8,24.7c0.2,0.4,0.6,0.8,1,1.2s0.8,0.6,1.3,0.7s1,0.2,1.5,0.1c0.5-0.1,1-0.2,1.4-0.5
			c0.4-0.3,0.8-0.6,1.1-1c0.3-0.4,0.5-0.9,0.6-1.4c0.1-0.5,0.1-1,0.1-1.5C140,134.1,139.8,133.6,139.6,133.2z M64.9,78
			c0-5.3,1.5-10.4,4.4-14.8c2.9-4.4,7-7.8,11.8-9.8c4.8-2,10.1-2.5,15.2-1.5c5.1,1,9.8,3.6,13.5,7.3c3.7,3.7,6.2,8.5,7.2,13.6
			c1,5.2,0.5,10.5-1.5,15.4c-2,4.9-5.4,9-9.7,12c-4.3,2.9-9.4,4.5-14.6,4.5c-7,0-13.7-2.8-18.6-7.8C67.7,91.8,64.9,85,64.9,78z"/>
	</g>
</g>
</svg>
