<svg width="39" height="30" viewBox="0 0 39 30" fill="none" xmlns="http://www.w3.org/2000/svg">
<path id="Vector" d="M37.5 3.05176e-05H1.5C1.10218 3.05176e-05 0.720644 0.158066 0.43934 0.439371C0.158035 0.720675 0 1.10221 0 1.50003V27C0 27.7957 0.31607 28.5587 0.87868 29.1213C1.44129 29.684 2.20435 30 3 30H36C36.7957 30 37.5587 29.684 38.1213 29.1213C38.6839 28.5587 39 27.7957 39 27V1.50003C39 1.10221 38.842 0.720675 38.5607 0.439371C38.2794 0.158066 37.8978 3.05176e-05 37.5 3.05176e-05ZM19.5 15.9657L5.35687 3.00003H33.6431L19.5 15.9657ZM14.0081 15L3 25.0894V4.91066L14.0081 15ZM16.2281 17.0344L18.4781 19.1063C18.7549 19.3603 19.1168 19.5013 19.4925 19.5013C19.8682 19.5013 20.2301 19.3603 20.5069 19.1063L22.7569 17.0344L33.6319 27H5.35687L16.2281 17.0344ZM24.9919 15L36 4.90878V25.0913L24.9919 15Z" fill="#5E2424"/>
</svg>
