<svg xmlns="http://www.w3.org/2000/svg" xmlns:xlink="http://www.w3.org/1999/xlink" version="1.1" x="0px" y="0px" viewBox="0 0 100 125" style="enable-background:new 0 0 100 100;" xml:space="preserve"><g><path d="M50.0030441,28.9592152c4.2586174,0,7.7238846-4.0458565,7.7238846-9.0187626   c0-4.9730539-3.4652672-9.0189104-7.7238846-9.0189104c-4.2616653,0-7.7268906,4.0458565-7.7268906,9.0189104   C42.2761536,24.9133587,45.7413788,28.9592152,50.0030441,28.9592152z"/><path d="M22.7400036,27.0350628c4.6142406,0,8.3652573-4.3741684,8.3652573-9.7484093   c0-5.3772097-3.7510166-9.7512283-8.3652573-9.7512283c-4.6112366,0-8.3622141,4.3740191-8.3622141,9.7512283   C14.3777895,22.6608944,18.128767,27.0350628,22.7400036,27.0350628z"/><path d="M77.2630386,27.0350628c4.6112747,0,8.3622131-4.3741684,8.3622131-9.7484093   c0-5.3772097-3.7509384-9.7512283-8.3622131-9.7512283c-4.6111984,0-8.3621368,4.3740191-8.3621368,9.7512283   C68.9009018,22.6608944,72.6518402,27.0350628,77.2630386,27.0350628z"/><path d="M7.6175027,69.6212692c0.425528,0.3860474,0.984859,0.2947693,1.3131709,0.0029678   c0.1519842-0.1307602,0.3251944-0.361702,0.3251944-0.7294998c0-0.0273056,0.0030422-0.051651,0.0030422-0.0789566v-0.0152893   L6.811975,65.9006042c-0.2614098-0.3069382-0.2857509-0.7507172-0.063859-1.0882339   c1.0031157-1.5198479,2.076138-2.9758759,3.2190681-4.3679314l1.2128363-14.2897034   c0.0425606-0.5015182,0.4833393-0.8753967,0.9879026-0.8298302c0.5015574,0.0425987,0.8723917,0.4832649,0.8298311,0.9849319   l-1.0031147,11.8122292c2.7995872-3.0214424,5.957839-5.6994362,9.4443636-8.0035515   c0.3374023-0.2248611,0.7812233-0.1975517,1.0912781,0.0638237l5.9334621,5.0125313   c0.9879017-0.5562859,1.9910164-1.0730934,3.012352-1.5502739V42.415966c0-3.517025,1.9150257-6.7299347,4.9030361-8.4321938   c-1.1125412-0.6291656-2.352726-0.9969559-3.6567688-1.0760651l-9.9854012-0.6048241l-9.9854403,0.6048241   c-4.4926462,0.2735405-8.0095615,4.0154305-8.0095615,8.5142708v23.1777c0,1.5381088,0.6535053,3.0122452,1.79035,4.0366592   L7.6175027,69.6212692z"/><path d="M33.2999153,42.415966v10.4261093c1.6110535-0.6656761,3.2615891-1.2310219,4.9364662-1.6991463l0.6505013-7.7390594   c0.0364723-0.4043045,0.3313141-0.735733,0.72649-0.8176613c6.7633286-1.3861198,13.9552307-1.3892365,20.776371-0.0060844   c0.3981438,0.0789604,0.6929855,0.4133568,0.7264557,0.8176613l0.6535034,7.7451439   c1.6718369,0.4681244,3.3194008,1.0304985,4.9242973,1.6961746V42.415966c0-3.3132401-2.0851898-6.2861481-5.1978378-7.4108963   c-0.0060883,0-0.0121727-0.0029678-0.0182571-0.0059395c-0.6961021-0.2493477-1.4286423-0.4013329-2.1824837-0.4468994   l-9.2984657-0.5653419l-9.2923393,0.5653419c-0.7538414,0.0455666-1.48946,0.1975517-2.1855659,0.4468994   c-0.0060844,0.0029716-0.0121307,0.0059395-0.018219,0.0059395C35.3881836,36.129818,33.2999153,39.102726,33.2999153,42.415966z"/><path d="M68.5178223,42.415966v11.2225456c1.0244141,0.4802933,2.0336151,0.9969559,3.0215149,1.5563583l5.9365387-5.0125313   c0.3069382-0.2613754,0.7538376-0.2886848,1.0912094-0.0638237c3.4804382,2.3009987,6.632637,4.9729042,9.4321899,7.9913788   l-1.0031128-11.8000565c-0.0425262-0.501667,0.3313522-0.9423332,0.8328705-0.9849319   c0.4985504-0.0425987,0.942337,0.3283119,0.9849319,0.8298302l1.2127686,14.2775307   c1.1490097,1.3951759,2.2281189,2.8541718,3.2342758,4.3771362c0.2218933,0.3404846,0.1975555,0.7842636-0.0638199,1.0912018   l-2.4591446,2.912056v0.0031204c0.0030441,0.0273056,0.0030441,0.051651,0.0030441,0.0789566   c0,0.592804,0.4468307,0.8359222,0.5836029,0.8967743c0.1368408,0.0607071,0.6170654,0.2248611,1.0548401-0.1702423   l1.0851135-0.9849319c1.1398926-1.0273819,1.7904282-2.4985504,1.7904282-4.0366592v-23.1777   c0-4.4988403-3.5169525-8.2407303-8.0096359-8.5142708l-9.9853668-0.6048241l-9.9854431,0.6048241   c-1.304039,0.0791092-2.547226,0.4468994-3.6598053,1.0791817C66.6028671,35.6830635,68.5178223,38.8959732,68.5178223,42.415966z"/><path d="M99.1367722,84.0202103l-7.6934967-0.6474228c-0.3830032-0.0333939-0.7082672-0.3039703-0.8054886-0.6778488   c-0.5380325-2.051796-1.2310944-4.0549088-2.0700531-5.9973145c-0.0273819-0.0455704-0.0486832-0.0972214-0.0638199-0.1488724   c-0.0031204-0.009201-0.0091324-0.0213699-0.0121689-0.030426c-0.6505432-1.4803696-1.3861237-2.9242249-2.2068253-4.3225174   c-0.1945801-0.3312759-0.1580734-0.7538376,0.0912018-1.0486069l2.6961746-3.1887131l0.051651-0.0638199l2.2342072-2.6445999   c-0.8966904-1.3191795-1.8511963-2.5896797-2.8633728-3.8117943c-0.030426-0.0273094-0.0547638-0.0577354-0.0790329-0.0880127   c-0.0030441-0.009201-0.0121689-0.0152893-0.0182571-0.0243416c-2.963707-3.5594749-6.4046631-6.6751671-10.2711487-9.3075943   l-5.8969879,4.9821091c-0.2948456,0.2492027-0.7143555,0.2857132-1.0486832,0.0911331   c-1.2767334-0.7447853-2.5868607-1.4224854-3.9273376-2.0274582c-0.0273819-0.0121689-0.0546951-0.0243416-0.082077-0.0365105   c-2.1004105-0.942337-4.2707939-1.7083473-6.4897156-2.288826c-0.3738747-0.0973663-0.6444511-0.4195938-0.677845-0.8054924   l-0.6474953-7.6966133c-6.1553879-1.1611099-12.6025772-1.1581421-18.7093582,0.0031166l-0.6474228,7.6934967   c-0.030426,0.3858986-0.3039703,0.7081261-0.677845,0.8054924c-2.249424,0.5896835-4.4471169,1.3678627-6.5749092,2.3314247   c0,0-0.0030403,0-0.0060844,0c-1.3374367,0.6018524-2.6445217,1.2765846-3.9150963,2.0213699   c-0.3343964,0.1945801-0.7538395,0.1580696-1.0486813-0.0911331l-5.8970585-4.9821091   c-3.8786583,2.6385117-7.319582,5.7602882-10.2863302,9.3227348c-0.0243044,0.0274582-0.048646,0.0547676-0.066865,0.082077   c-0.0091276,0.0060844-0.0121336,0.0121689-0.0151758,0.0151367c-1.0122433,1.2221146-1.966713,2.4926147-2.8634462,3.8117943   l2.2189941,2.6294632l0.0607796,0.0699005l2.7053757,3.1977692c0.249239,0.2947693,0.2857141,0.7173309,0.0881262,1.0486069   c-0.8237457,1.4012604-1.5593662,2.8572922-2.2159147,4.3437424c0,0.0031204-0.0030432,0.0031204-0.0030432,0.0060883   c-0.0030422,0.0060806-0.0030422,0.009201-0.0060844,0.0151367c0,0.0062332-0.0030432,0.0121689-0.0030432,0.0152893   c-0.015213,0.0394821-0.030427,0.0759888-0.0516882,0.1125031c0,0.0029678-0.003006,0.0029678-0.003006,0.0060883   c-0.0030422,0.0090485-0.0060844,0.0151367-0.0121698,0.0243378c-0.8298321,1.9332047-1.522892,3.9333572-2.0578823,5.9759445   c-0.1003342,0.3738785-0.4225225,0.644455-0.8055277,0.6778488l-7.6965003,0.6474228   C0.3404819,86.7802811,0.0486456,89.6133728,0,92.4645767h22.7247906C23.2020435,77.8345413,35.2544174,66.0800476,50,66.0800476   s26.798027,11.7513733,27.2782516,26.3814087H100C99.9513931,89.61026,99.6626358,86.7773132,99.1367722,84.0202103z"/></g><text x="0" y="115" fill="#000000" font-size="5px" font-weight="bold" font-family="'Helvetica Neue', Helvetica, Arial-Unicode, Arial, Sans-serif">Created by ABDUL LATIF</text><text x="0" y="120" fill="#000000" font-size="5px" font-weight="bold" font-family="'Helvetica Neue', Helvetica, Arial-Unicode, Arial, Sans-serif">from the Noun Project</text></svg>