<svg xmlns="http://www.w3.org/2000/svg" data-name="Layer 1" viewBox="0 0 95 118.75" x="0px" y="0px"><defs><style>.cls-1{fill-rule:evenodd;}</style></defs><title>a</title><path class="cls-1" d="M46.1,4.522a8.657,8.657,0,1,0,8.656,8.655A8.669,8.669,0,0,0,46.1,4.522Zm-8.727,21.2H54.823a1.1,1.1,0,0,0,.437-.089l16.059-6.778a1.119,1.119,0,0,0,.6-.6L77.944,3.9a2.271,2.271,0,0,1,2.81-1.285l.34.113a2.276,2.276,0,0,1,1.484,2.791L77.737,22.532l-11.195,8.2a1.122,1.122,0,0,0-.461.906v5.255l-.416-.418a2.714,2.714,0,0,0-3.445-.355l-3.458,2.268a27.313,27.313,0,0,0-4.567-1.9l-.841-4.044a2.724,2.724,0,0,0-2.686-2.186H41.525a2.724,2.724,0,0,0-2.685,2.186L38,36.491a27.253,27.253,0,0,0-4.568,1.9L29.973,36.12a2.712,2.712,0,0,0-3.444.355l-.417.418V31.638a1.124,1.124,0,0,0-.46-.906l-11.2-8.2L9.616,5.517A2.274,2.274,0,0,1,11.1,2.726l.339-.113A2.272,2.272,0,0,1,14.249,3.9l6.025,14.353a1.119,1.119,0,0,0,.6.6l16.059,6.778a1.1,1.1,0,0,0,.437.089ZM75.854,39.193,72.12,42.926l.009.012a2.72,2.72,0,0,1,.354,3.444l-2.268,3.455q.236.453.452.906l8.369-8.365a1.12,1.12,0,0,1,1.591,0l2.165,2.163,2.68-12.335L73.137,34.888l2.717,2.718a1.119,1.119,0,0,1,0,1.587ZM75.7,57.449l-4.7-.975a1.124,1.124,0,0,1-.854-.793,24.8,24.8,0,0,0-2.216-5.345,1.125,1.125,0,0,1,.041-1.167l2.637-4.02a.48.48,0,0,0-.064-.62l-6.465-6.464A.477.477,0,0,0,63.454,38l-4.021,2.638a1.135,1.135,0,0,1-1.166.04,24.763,24.763,0,0,0-5.343-2.215,1.136,1.136,0,0,1-.8-.854l-.977-4.7a.483.483,0,0,0-.483-.394H41.525a.477.477,0,0,0-.483.394l-.977,4.7a1.125,1.125,0,0,1-.795.85,24.974,24.974,0,0,0-5.345,2.219,1.143,1.143,0,0,1-1.165-.04L28.74,38a.479.479,0,0,0-.62.064l-6.465,6.464a.479.479,0,0,0-.063.62l2.636,4.02a1.128,1.128,0,0,1,.042,1.167,24.737,24.737,0,0,0-2.216,5.345,1.124,1.124,0,0,1-.853.793l-4.705.975a.483.483,0,0,0-.394.487v9.141a.479.479,0,0,0,.394.483l4.7.977a1.128,1.128,0,0,1,.853.795c.092.323.192.643.3.961l6.017-6.014c-.059-.588-.088-1.18-.088-1.772a17.819,17.819,0,1,1,3.707,10.878L23.272,82.1l4.848,4.847a.476.476,0,0,0,.619.063l4.021-2.637a1.126,1.126,0,0,1,1.166-.04A24.836,24.836,0,0,0,39.27,86.55a1.128,1.128,0,0,1,.795.852l.977,4.706a.477.477,0,0,0,.483.392h9.143a.484.484,0,0,0,.483-.392l.977-4.706a1.123,1.123,0,0,1,.8-.852,24.955,24.955,0,0,0,5.344-2.217,1.126,1.126,0,0,1,1.166.04l4.02,2.637a.476.476,0,0,0,.619-.063l6.465-6.465a.479.479,0,0,0,.064-.619l-2.637-4.022a1.12,1.12,0,0,1-.041-1.164,24.832,24.832,0,0,0,2.216-5.345,1.129,1.129,0,0,1,.854-.795l4.7-.977a.478.478,0,0,0,.393-.483V57.936a.488.488,0,0,0-.393-.487ZM61.654,62.938a15.564,15.564,0,0,1-28.062,8.841L42.177,63.2l8.816,8.814a1.124,1.124,0,0,0,1.591,0l9.07-9.071ZM30.539,62.1A15.558,15.558,0,0,1,58.61,53.256l-6.822,6.823-8.815-8.816a1.127,1.127,0,0,0-1.592,0L30.539,62.1ZM16.154,86.035l-3.182-3.182L42.177,53.647l8.816,8.815a1.118,1.118,0,0,0,1.591,0l7.258-7.253a15.419,15.419,0,0,1,1.611,4.748l-9.665,9.669-8.815-8.819a1.127,1.127,0,0,0-1.592,0Z"/><text x="0" y="110" fill="#000000" font-size="5px" font-weight="bold" font-family="'Helvetica Neue', Helvetica, Arial-Unicode, Arial, Sans-serif">Created by iconmas</text><text x="0" y="115" fill="#000000" font-size="5px" font-weight="bold" font-family="'Helvetica Neue', Helvetica, Arial-Unicode, Arial, Sans-serif">from the Noun Project</text></svg>