<svg xmlns="http://www.w3.org/2000/svg" xmlns:xlink="http://www.w3.org/1999/xlink" version="1.1" x="0px" y="0px" viewBox="0 0 48 60" style="enable-background:new 0 0 48 48;" xml:space="preserve"><path d="M39.9350586,20.1148682c-0.4575806-0.0684814-0.9289551-0.1338501-1.4007568-0.1981201  c-0.314209-1.0786133-0.7357788-2.1112061-1.2669067-3.0778809c0.2860718-0.3763428,0.5712891-0.753418,0.8453979-1.1237793  c0.7440796-1.0062256,0.6364136-2.4333496-0.2501221-3.319458l-2.2213135-2.2210083  c-0.8865356-0.8866577-2.3135986-0.9941406-3.3195801-0.2498169c-0.3699951,0.2738037-0.7449341,0.5574341-1.1188965,0.8415527  c-0.968689-0.5341797-2.0030518-0.9597778-3.0844727-1.2759399c-0.0637207-0.4675293-0.1283569-0.9348145-0.196228-1.3881836  c-0.1850586-1.2373657-1.2701416-2.1707153-2.5238647-2.1707153H22.256897c-1.2537231,0-2.3388062,0.9333496-2.5238647,2.1705933  c-0.067749,0.453186-0.1324463,0.9206543-0.196228,1.3883667c-1.0813599,0.3161621-2.1156616,0.7416382-3.0842896,1.2758179  c-0.3739014-0.2842407-0.7489624-0.5680542-1.1189575-0.8416748c-1.0062256-0.7443237-2.4333496-0.6367798-3.3195801,0.2496948  l-2.2210083,2.2208862c-0.8866577,0.8864136-0.9944458,2.3136597-0.2501221,3.3200684  c0.2738037,0.3701782,0.559082,0.7473145,0.8450928,1.1235962c-0.5311279,0.9666748-0.9527588,1.9992676-1.2669678,3.0778809  c-0.4717407,0.0643311-0.9432373,0.1296387-1.4006348,0.1981201c-1.2375488,0.1851807-2.1708984,1.2701416-2.1708984,2.5239868  v3.1412354c0,1.2537231,0.9330444,2.3388062,2.1705933,2.5239868c0.4605103,0.0689087,0.9349365,0.1347656,1.40979,0.1994019  c0.3153687,1.0731812,0.7387695,2.0997925,1.269043,3.0617676c-0.2896729,0.3811035-0.5785522,0.7628784-0.8565674,1.1386108  c-0.7438965,1.0059814-0.6364136,2.4333496,0.2501221,3.3193359l2.2213135,2.2213135  c0.8863525,0.8866577,2.3134766,0.9940186,3.3195801,0.2498169c0.3780518-0.279541,0.7611084-0.569397,1.1431885-0.8598022  c0.960083,0.5271606,1.9849243,0.9466553,3.0553589,1.2600098c0.0650635,0.479187,0.1315308,0.9578247,0.2010498,1.4224243  c0.1852417,1.2374268,1.2703247,2.1707153,2.5239868,2.1707153h3.1414185c1.2537231,0,2.3388062-0.9329834,2.5238647-2.1708374  c0.069397-0.4645996,0.1358032-0.9431152,0.2010498-1.4223022c1.0704956-0.3133545,2.095459-0.7327881,3.055542-1.2599487  c0.381958,0.2904663,0.7650146,0.5801392,1.1428833,0.8597412c1.0059814,0.7443237,2.4333496,0.6368408,3.3195801-0.2496948  l2.2213135-2.2210083c0.8865356-0.8864136,0.9941406-2.3136597,0.2498169-3.3198853  c-0.277771-0.3755493-0.5665894-0.7573853-0.8561401-1.1382446c0.5302734-0.9619751,0.9537964-1.9885864,1.2692261-3.0618896  c0.4747925-0.0646973,0.9490967-0.1304321,1.4094238-0.1993408c1.2375488-0.1852417,2.1708984-1.2701416,2.1708984-2.5239868  v-3.1412964C42.1056519,21.3851318,41.1724243,20.3000488,39.9350586,20.1148682z M13.5019531,24.1928711  c0-5.6933594,4.6323242-10.3251953,10.3256836-10.3251953c5.6938477,0,10.3256836,4.6318359,10.3256836,10.3251953  c0,5.6938477-4.6318359,10.3256836-10.3256836,10.3256836C18.1342773,34.5185547,13.5019531,29.8867188,13.5019531,24.1928711z   M22.0336914,27.1748047c-0.3764648-0.375-0.5878906-0.8847656-0.5878906-1.4160156v-5.7045898c0-1.1044922,0.8955078-2,2-2  s1.9995117,0.8955078,1.9995117,2v3.6982422l3.1826172-0.0102539c0.0029297,0,0.0048828,0,0.0068359,0  c1.1015625,0,1.9960938,0.8911133,2,1.9931641c0.0039063,1.1054688-0.8886719,2.0029297-1.9931641,2.0068359l-5.1894531,0.0166016  c-0.0019531,0-0.0043945,0-0.0063477,0C22.9165039,27.7587891,22.4086914,27.5488281,22.0336914,27.1748047z"/><text x="0" y="63" fill="#000000" font-size="5px" font-weight="bold" font-family="'Helvetica Neue', Helvetica, Arial-Unicode, Arial, Sans-serif">Created by Culai Lai</text><text x="0" y="68" fill="#000000" font-size="5px" font-weight="bold" font-family="'Helvetica Neue', Helvetica, Arial-Unicode, Arial, Sans-serif">from the Noun Project</text></svg>