<svg xmlns="http://www.w3.org/2000/svg" data-name="Layer 1" viewBox="0 0 64 80" x="0px" y="0px"><path d="M20.92053,37.00049a6.388,6.388,0,0,0-1.57483.22284v.7232a.77477.77477,0,0,1-.44745.70954,5.00466,5.00466,0,0,0-.73773.41113.82669.82669,0,0,1-.85876.02014l-.64813-.36194A5.94517,5.94517,0,0,0,15,41.49707l1.12354.62738a4.481,4.481,0,0,0,0,1.7511l-1.12336.62726a5.94444,5.94444,0,0,0,1.65027,2.77356l.65137-.36377a.827.827,0,0,1,.85876.0202,4.9897,4.9897,0,0,0,.73767.41107.77486.77486,0,0,1,.44745.7096v.72613a6.276,6.276,0,0,0,3.30854-.00293v-.7232a.77485.77485,0,0,1,.44744-.7096,4.989,4.989,0,0,0,.7378-.41113.827.827,0,0,1,.8587-.02014l.64813.362A5.94536,5.94536,0,0,0,27,44.50293l-1.1236-.62738a4.481,4.481,0,0,0,0-1.7511l1.12336-.62726a5.945,5.945,0,0,0-1.65027-2.77356l-.65131.36371a.82658.82658,0,0,1-.8587-.02014,5.0054,5.0054,0,0,0-.7378-.41113.77476.77476,0,0,1-.44744-.70954V37.2204A6.38822,6.38822,0,0,0,20.92053,37.00049ZM23,43a2,2,0,1,1-2-2A2,2,0,0,1,23,43Z"/><path d="M52,42a3,3,0,0,0-3-3H45a3,3,0,0,0-3,3v6H62V42a3,3,0,0,0-3-3H55A3,3,0,0,0,52,42Z"/><circle cx="57" cy="36" r="3"/><circle cx="47" cy="36" r="3"/><path d="M56,19H44a1,1,0,0,0-1,1v6a1,1,0,0,0,1,1h4l4,4V27h4a1,1,0,0,0,1-1V20A1,1,0,0,0,56,19Z"/><path d="M52,7a5.00588,5.00588,0,0,0-5-5H14A5.00588,5.00588,0,0,0,9,7v8h2V7a3.00328,3.00328,0,0,1,3-3H47a3.00328,3.00328,0,0,1,3,3v3H47l4,6,4-6H52Z"/><path d="M52,57V52H50v5a3.00328,3.00328,0,0,1-3,3H14a3.00328,3.00328,0,0,1-3-3V55h3l-4-6L6,55H9v2a5.00588,5.00588,0,0,0,5,5H47A5.00588,5.00588,0,0,0,52,57Z"/><path d="M7,29.42346V19H2V42H12.05865A8.99918,8.99918,0,0,1,19,34.23071V25l-6,4.42346V25Z"/><text x="0" y="79" fill="#000000" font-size="5px" font-weight="bold" font-family="'Helvetica Neue', Helvetica, Arial-Unicode, Arial, Sans-serif">Created by Nithinan Tatah</text><text x="0" y="84" fill="#000000" font-size="5px" font-weight="bold" font-family="'Helvetica Neue', Helvetica, Arial-Unicode, Arial, Sans-serif">from the Noun Project</text></svg>