<svg xmlns="http://www.w3.org/2000/svg" xmlns:xlink="http://www.w3.org/1999/xlink" viewBox="0 0 74 125" version="1.1" x="0px" y="0px"><title>Technical Specifications Product specification</title><desc>Created with Sketch.</desc><g stroke="none" stroke-width="1" fill="none" fill-rule="evenodd"><path d="M73.23881,17 C73.2170504,16.9618686 73.1937068,16.9248274 73.170087,16.88778 C73.160337,16.8724 73.151957,16.85633 73.141747,16.84118 C73.113407,16.79887 73.082127,16.75905 73.051067,16.719 C73.036787,16.70045 73.024087,16.681 73.009127,16.6629 C72.974897,16.62149 72.937937,16.58281 72.900987,16.54389 C72.887157,16.52941 72.874917,16.5138 72.860857,16.49955 L56.991297,0.66244 C56.977007,0.64819 56.961367,0.63597 56.946857,0.6224 C56.907867,0.58552 56.869097,0.54864 56.827607,0.51448 C56.809477,0.49977 56.789977,0.48688 56.771617,0.47262 C56.731487,0.44163 56.691357,0.41041 56.649187,0.38213 C56.633997,0.37217 56.617907,0.36357 56.602717,0.35385 C56.5768961,0.337451736 56.5510753,0.32118712 56.524887,0.305496399 L56.524887,13 C56.524887,15.209139 58.315748,17 60.524887,17 L73.23881,17 Z M55.524887,0.004081132 C55.4794694,0.00139377646 55.4339347,0 55.388237,0 L2.791967,0 C1.539857,0 0.524887,1.01312 0.524887,2.26244 L0.524887,97.73756 C0.524887,98.98688 1.539857,100 2.791967,100 L71.257807,100 C72.509687,100 73.524887,98.98688 73.524887,97.73756 L73.524887,18.09955 C73.524887,18.0662734 73.5241448,18.0330836 73.5226782,18 L59.524887,18 C57.315748,18 55.524887,16.209139 55.524887,14 L55.524887,0.00408113245 Z M18.824545,77 C17.395974,77 16.375566,75.97959 16.375566,74.55102 C16.375566,73.12245 17.395974,72 18.824545,72 L33.722505,72 C35.151076,72 36.171484,73.12245 36.171484,74.55102 C36.171484,75.97959 35.151076,77 33.722505,77 L18.824545,77 Z M18.824545,87 C17.395974,87 16.375566,85.97959 16.375566,84.55102 C16.375566,83.12245 17.395974,82 18.824545,82 L33.722505,82 C35.151076,82 36.171484,83.12245 36.171484,84.55102 C36.171484,85.97959 35.151076,87 33.722505,87 L18.824545,87 Z M18.824545,57 C17.395974,57 16.375566,55.97959 16.375566,54.55102 C16.375566,53.12245 17.395974,52 18.824545,52 L56.722505,52 C58.151076,52 59.171484,53.12245 59.171484,54.55102 C59.171484,55.97959 58.151076,57 56.722505,57 L18.824545,57 Z M18.824545,67 C17.395974,67 16.375566,65.97959 16.375566,64.55102 C16.375566,63.12245 17.395974,62 18.824545,62 L56.722505,62 C58.151076,62 59.171484,63.12245 59.171484,64.55102 C59.171484,65.97959 58.151076,67 56.722505,67 L18.824545,67 Z M41.824545,77 C40.395974,77 39.375566,75.97959 39.375566,74.55102 C39.375566,73.12245 40.395974,72 41.824545,72 L56.722505,72 C58.151076,72 59.171484,73.12245 59.171484,74.55102 C59.171484,75.97959 58.151076,77 56.722505,77 L41.824545,77 Z M41.824545,87 C40.395974,87 39.375566,85.97959 39.375566,84.55102 C39.375566,83.12245 40.395974,82 41.824545,82 L56.722505,82 C58.151076,82 59.171484,83.12245 59.171484,84.55102 C59.171484,85.97959 58.151076,87 56.722505,87 L41.824545,87 Z M41.316754,26.04971 C41.403833,26.04971 41.474513,26.12096 41.474513,26.20804 L41.474513,33.79177 C41.474513,33.87829 41.403833,33.94897 41.316754,33.94897 L33.733585,33.94897 C33.645941,33.94897 33.575261,33.87829 33.575261,33.79177 L33.575261,26.20804 C33.575261,26.12096 33.645941,26.04971 33.733585,26.04971 L41.316754,26.04971 Z M50.820312,31.70062 L48.149612,31.70062 L48.149612,33.08249 L50.819652,33.08249 C51.762019,33.08249 52.524227,33.84074 52.524227,34.78245 C52.524227,35.72481 51.762019,36.48372 50.819652,36.48372 L48.149612,36.48372 C47.986612,38.69512 46.221323,40.46172 44.007949,40.62473 L44.007949,43.29476 C44.007949,44.23581 43.24904,44.99868 42.306673,44.99868 C41.364966,44.99868 40.606717,44.23581 40.606717,43.29476 L40.606717,40.62341 L39.226823,40.62341 L39.226823,43.29476 C39.226823,44.23581 38.465934,44.99868 37.524887,44.99868 C36.58318,44.99868 35.823611,44.23581 35.823611,43.29476 L35.823611,40.62341 L34.443057,40.62341 L34.443057,43.29476 C34.443057,44.23581 33.684148,44.99868 32.742441,44.99868 C31.800734,44.99868 31.041165,44.23581 31.041165,43.29476 L31.041165,40.62407 C28.82911,40.46106 27.062502,38.69578 26.899502,36.4824 L24.229462,36.4824 C23.287755,36.4824 22.524887,35.72349 22.524887,34.78245 C22.524887,33.84008 23.287755,33.08051 24.229462,33.08117 L26.900162,33.08117 L26.900162,31.70062 L24.229462,31.70062 C23.287755,31.70062 22.524887,30.94105 22.524887,29.99934 C22.524887,29.05763 23.287755,28.29872 24.229462,28.29872 L26.900162,28.29872 L26.900162,26.91817 L24.229462,26.91817 C23.287755,26.91817 22.524887,26.15926 22.524887,25.21755 C22.524887,24.27585 23.287755,23.51628 24.229462,23.51628 L26.899502,23.51628 C27.062502,21.30422 28.828451,19.53762 31.041165,19.37462 L31.041165,16.70458 C31.041165,15.76287 31.800734,15 32.742441,15 C33.684148,15 34.443717,15.76287 34.443057,16.70458 L34.443057,19.37527 L35.822951,19.37527 L35.822951,16.70458 C35.822951,15.76287 36.58252,15 37.524227,15 C38.465934,15 39.226163,15.76287 39.226163,16.70458 L39.226163,19.37527 L40.606717,19.37527 L40.606717,16.70458 C40.606717,15.76287 41.366286,15 42.307333,15 C43.24838,15 44.008609,15.76287 44.008609,16.70458 L44.008609,19.37527 C46.220004,19.53828 47.987272,21.30356 48.150272,23.51694 L50.820312,23.51694 C51.762678,23.51694 52.524887,24.27651 52.524887,25.21821 C52.524887,26.15992 51.762678,26.91883 50.820312,26.91883 L48.149612,26.91883 L48.149612,28.29938 L50.820312,28.29938 C51.762678,28.29938 52.524887,29.05763 52.524887,30 C52.524887,30.94237 51.762678,31.70062 50.820312,31.70062 Z M44.846048,34.42543 L44.846708,34.42543 L44.846708,25.57457 C44.846708,23.96898 43.556563,22.67818 41.950316,22.67818 L33.100118,22.67818 C31.494531,22.67818 30.203726,23.96898 30.203726,25.57457 L30.203726,34.42543 C30.203726,36.03168 31.493871,37.32248 33.100118,37.32248 L41.949656,37.32248 C43.555243,37.32248 44.846048,36.03168 44.846048,34.42543 Z" fill="#000000" fill-rule="nonzero"/></g><text x="0" y="115" fill="#000000" font-size="5px" font-weight="bold" font-family="'Helvetica Neue', Helvetica, Arial-Unicode, Arial, Sans-serif">Created by Silviu Ojog</text><text x="0" y="120" fill="#000000" font-size="5px" font-weight="bold" font-family="'Helvetica Neue', Helvetica, Arial-Unicode, Arial, Sans-serif">from the Noun Project</text></svg>