<svg xmlns="http://www.w3.org/2000/svg" data-name="Layer 1" viewBox="0 0 64 80" x="0px" y="0px"><title>Project Managemant 2</title><path d="M60.67,51.42,41.51,34.68a21.92,21.92,0,1,0-6.82,6.82L51.42,60.67a6.56,6.56,0,1,0,9.26-9.26ZM35.56,35.56a17.77,17.77,0,1,1,0-25.14A17.79,17.79,0,0,1,35.56,35.56Z"/><path d="M37,21c-2.05-1.88-7.52-6.25-14-6.25S11.05,19.16,9,21a2.65,2.65,0,0,0,0,3.9c2.05,1.88,7.52,6.25,14,6.25s11.94-4.37,14-6.25A2.65,2.65,0,0,0,37,21ZM23,28.47c-5.46,0-10.24-3.79-12.1-5.48,1.86-1.69,6.64-5.48,12.1-5.48S33.29,21.35,35.1,23C33.25,24.66,28.46,28.47,23,28.47Z"/><path d="M21.81,19.14l-.36.11.24.29a1.61,1.61,0,0,1,.38,1,1.64,1.64,0,0,1-1.64,1.64,1.62,1.62,0,0,1-1-.32l-.3-.22-.09.36a4,4,0,1,0,2.73-2.89Z"/><text x="0" y="79" fill="#000000" font-size="5px" font-weight="bold" font-family="'Helvetica Neue', Helvetica, Arial-Unicode, Arial, Sans-serif">Created by SHAHAREA</text><text x="0" y="84" fill="#000000" font-size="5px" font-weight="bold" font-family="'Helvetica Neue', Helvetica, Arial-Unicode, Arial, Sans-serif">from the Noun Project</text></svg>