<svg xmlns="http://www.w3.org/2000/svg" data-name="Layer 1" viewBox="0 0 64 80" x="0px" y="0px"><title>Artboard 17</title><path d="M48.65,24.34c-7,0-14.85,10.41-14.85,17.46a4.29,4.29,0,0,0,4.28,4.29H59.22A4.29,4.29,0,0,0,63.5,41.8C63.5,34.75,55.68,24.34,48.65,24.34ZM44,41.85a2.47,2.47,0,1,1,2.47-2.47A2.47,2.47,0,0,1,44,41.85Zm4-7.27a1.9,1.9,0,1,1,1.9-1.9A1.9,1.9,0,0,1,47.92,34.58Zm6,4.23a1.33,1.33,0,1,1,1.34-1.33A1.33,1.33,0,0,1,53.89,38.81Z"/><path d="M29.8,41.8a17,17,0,0,1,.55-4.09H15.76a55.11,55.11,0,0,1-3.47,14.94c-1.49,3.18-1.84,5.85-1,7.94a4.82,4.82,0,0,0,2.48,2.75,1.91,1.91,0,0,0,.78.16H31.29A2,2,0,0,0,32.67,63c3.36-3.19,4-8,3.37-13.13A8.29,8.29,0,0,1,29.8,41.8Z"/><path d="M45.93,20.66C42.19,10.88,32.46.5,24,.5,13,.5.31,17.5.5,28.43A5.78,5.78,0,0,0,6.32,34H31.66C34.43,27.82,40,22.07,45.93,20.66Zm-18-13A1.9,1.9,0,1,1,26,9.54,1.9,1.9,0,0,1,27.88,7.64ZM9,16l0,0a1.94,1.94,0,0,1,2.06-.87,7,7,0,0,0,8.45-5.27,8.56,8.56,0,0,0,0-2.47,2.06,2.06,0,0,1,1.33-2.16h.05a2,2,0,0,1,2.7,1.56,11.75,11.75,0,0,1,.11,1.58,11,11,0,0,1-11,11,10.7,10.7,0,0,1-2.6-.32A2,2,0,0,1,9,16ZM19.55,30h0A1.93,1.93,0,0,1,17.76,29a4.67,4.67,0,0,0-8.38-.11,1.92,1.92,0,0,1-1.91,1H7.41a2,2,0,0,1-1.6-2.83,8.66,8.66,0,0,1,15.5.06A2,2,0,0,1,19.55,30Zm1.83-8.29a1.9,1.9,0,1,1,1.9-1.9A1.9,1.9,0,0,1,21.38,21.71Zm4,6a1.9,1.9,0,1,1,1.9-1.9A1.9,1.9,0,0,1,25.34,27.73Zm4.43-9.33a1.9,1.9,0,1,1,1.9-1.9A1.9,1.9,0,0,1,29.77,18.4Z"/><path d="M55.29,50.09H43.5c-.41,3.36-1,5.26-1.46,6a5,5,0,0,0-1,4.6,4.72,4.72,0,0,0,3,2.76,2,2,0,0,0,.59.09h6.65a5.22,5.22,0,0,0,5.18-5.75C56.21,55.66,55.85,53,55.29,50.09Z"/><text x="0" y="79" fill="#000000" font-size="5px" font-weight="bold" font-family="'Helvetica Neue', Helvetica, Arial-Unicode, Arial, Sans-serif">Created by Rupture Mind</text><text x="0" y="84" fill="#000000" font-size="5px" font-weight="bold" font-family="'Helvetica Neue', Helvetica, Arial-Unicode, Arial, Sans-serif">from the Noun Project</text></svg>