<svg xmlns="http://www.w3.org/2000/svg" data-name="Layer 1" viewBox="0 0 100 125" x="0px" y="0px"><title>Artboard 24</title><path d="M36.82,48.36a4.07,4.07,0,0,0,5.09-.6L46,43.66V58a4,4,0,1,0,8,0V43.66l4,4a4.16,4.16,0,0,0,5.27.63,4,4,0,0,0,.55-6.12l-5.89-5.89a11.24,11.24,0,0,0-12-2.54,11.64,11.64,0,0,0-4.07,2.71l-5.72,5.73A4,4,0,0,0,36.82,48.36Z"/><circle cx="24" cy="33" r="4"/><circle cx="40" cy="22" r="4"/><circle cx="60" cy="22" r="4"/><circle cx="76" cy="33" r="4"/><circle cx="24" cy="53" r="4"/><circle cx="76" cy="53" r="4"/><path d="M78,74c-1.55,0-2.25-.64-4-2.63S69.32,66,64,66s-8.14,3.23-10,5.37S51.56,74,50,74s-2.25-.64-4-2.63S41.32,66,36,66s-8.14,3.23-10,5.37S23.56,74,22,74a4,4,0,0,0,0,8c5.32,0,8.14-3.23,10-5.37S34.45,74,36,74s2.25.64,4,2.63S44.69,82,50,82s8.14-3.23,10-5.37S62.45,74,64,74s2.25.64,4,2.63S72.69,82,78,82a4,4,0,0,0,0-8Z"/><text x="0" y="115" fill="#000000" font-size="5px" font-weight="bold" font-family="'Helvetica Neue', Helvetica, Arial-Unicode, Arial, Sans-serif">Created by Gregor Cresnar</text><text x="0" y="120" fill="#000000" font-size="5px" font-weight="bold" font-family="'Helvetica Neue', Helvetica, Arial-Unicode, Arial, Sans-serif">from the Noun Project</text></svg>