<svg xmlns="http://www.w3.org/2000/svg" xmlns:xlink="http://www.w3.org/1999/xlink" version="1.1" x="0px" y="0px" viewBox="0 0 100 125" style="enable-background:new 0 0 100 100;" xml:space="preserve"><path d="M82.303,39.792c1.375,3.877,2.072,7.944,2.072,12.085c0,19.988-16.262,36.25-36.25,36.25s-36.25-16.262-36.25-36.25  s16.262-36.25,36.25-36.25c4.147,0,8.213,0.698,12.086,2.073c1.301,0.461,1.981,1.892,1.52,3.193  c-0.463,1.299-1.903,1.975-3.192,1.519c-3.335-1.184-6.84-1.785-10.414-1.785c-17.231,0-31.25,14.019-31.25,31.25  s14.019,31.25,31.25,31.25s31.25-14.019,31.25-31.25c0-3.569-0.601-7.075-1.783-10.415c-0.461-1.301,0.22-2.729,1.521-3.191  C80.413,37.807,81.842,38.488,82.303,39.792z M87.393,24.894l-7.5,7.5c-0.469,0.469-1.105,0.732-1.768,0.732H70.41l-3.831,3.831  c3.306,4.081,5.296,9.27,5.296,14.919c0,13.096-10.654,23.75-23.75,23.75s-23.75-10.654-23.75-23.75s10.654-23.75,23.75-23.75  c5.649,0,10.838,1.99,14.919,5.296l3.831-3.831v-7.715c0-0.664,0.264-1.299,0.732-1.768l7.5-7.5  c0.714-0.718,1.787-0.935,2.725-0.542c0.934,0.386,1.543,1.299,1.543,2.31v6.25h6.25c1.011,0,1.923,0.608,2.31,1.543  S88.108,24.179,87.393,24.894z M63.013,40.524l-5.387,5.387c1.093,1.734,1.75,3.769,1.75,5.965c0,6.204-5.046,11.25-11.25,11.25  s-11.25-5.046-11.25-11.25s5.046-11.25,11.25-11.25c2.196,0,4.232,0.657,5.965,1.75l5.387-5.387  c-3.155-2.412-7.083-3.862-11.353-3.862c-10.339,0-18.75,8.411-18.75,18.75s8.411,18.75,18.75,18.75s18.75-8.411,18.75-18.75  C66.875,47.607,65.425,43.679,63.013,40.524z M53.932,49.604l-4.04,4.04c-0.488,0.488-1.128,0.732-1.768,0.732  s-1.279-0.244-1.768-0.732c-0.977-0.977-0.977-2.559,0-3.535l4.04-4.04c-0.706-0.277-1.469-0.443-2.272-0.443  c-3.446,0-6.25,2.803-6.25,6.25s2.804,6.25,6.25,6.25s6.25-2.803,6.25-6.25C54.375,51.073,54.21,50.311,53.932,49.604z   M79.59,25.627h-2.715c-1.381,0-2.5-1.118-2.5-2.5v-2.715l-2.5,2.5v5.215h5.215L79.59,25.627z"/><text x="0" y="115" fill="#000000" font-size="5px" font-weight="bold" font-family="'Helvetica Neue', Helvetica, Arial-Unicode, Arial, Sans-serif">Created by Tamzid Hasan</text><text x="0" y="120" fill="#000000" font-size="5px" font-weight="bold" font-family="'Helvetica Neue', Helvetica, Arial-Unicode, Arial, Sans-serif">from the Noun Project</text></svg>