<svg xmlns="http://www.w3.org/2000/svg" xmlns:xlink="http://www.w3.org/1999/xlink" version="1.1" x="0px" y="0px" viewBox="0 0 16 20" style="enable-background:new 0 0 16 16;" xml:space="preserve"><path d="M14,1H2C1.448,1,1,1.448,1,2v9c0,0.552,0.448,1,1,1h4.5L5,14v1h6v-1l-1.5-2H14c0.552,0,1-0.448,1-1V2  C15,1.448,14.552,1,14,1z M14,2v3h-2c-0.157,0-0.306,0.074-0.4,0.2l-1.063,1.417L8.424,3.235c-0.183-0.292-0.665-0.292-0.848,0  L5.462,6.617L4.4,5.2C4.306,5.074,4.157,5,4,5H2V2H14z M2,9V6h1.75L5.1,7.8C5.199,7.932,5.359,8.02,5.521,8  c0.165-0.007,0.315-0.095,0.403-0.234L8,4.443l2.076,3.322c0.087,0.14,0.238,0.228,0.402,0.234c0.008,0,0.015,0,0.021,0  c0.157,0,0.306-0.074,0.4-0.2L12.25,6H14v3H2z"/><text x="0" y="31" fill="#000000" font-size="5px" font-weight="bold" font-family="'Helvetica Neue', Helvetica, Arial-Unicode, Arial, Sans-serif">Created by icon 54</text><text x="0" y="36" fill="#000000" font-size="5px" font-weight="bold" font-family="'Helvetica Neue', Helvetica, Arial-Unicode, Arial, Sans-serif">from the Noun Project</text></svg>