<svg xmlns="http://www.w3.org/2000/svg" xmlns:xlink="http://www.w3.org/1999/xlink" version="1.1" x="0px" y="0px" viewBox="0 0 30 37.5" style="enable-background:new 0 0 30 30;" xml:space="preserve"><path d="M28.707,15.293L25,11.586V8.007c0-0.004,0-0.009,0-0.013V2c0-0.553-0.447-1-1-1h-7c-0.419,0-0.793,0.261-0.938,0.653  c-0.145,0.393-0.031,0.834,0.287,1.105L23,8.46v3.126l-9,9l-4.293-4.293c-0.391-0.391-1.023-0.391-1.414,0l-7,7  C1.105,23.48,1,23.734,1,24v4c0,0.553,0.447,1,1,1h26c0.553,0,1-0.447,1-1V16C29,15.734,28.895,15.48,28.707,15.293z"/><text x="0" y="45" fill="#000000" font-size="5px" font-weight="bold" font-family="'Helvetica Neue', Helvetica, Arial-Unicode, Arial, Sans-serif">Created by Becris</text><text x="0" y="50" fill="#000000" font-size="5px" font-weight="bold" font-family="'Helvetica Neue', Helvetica, Arial-Unicode, Arial, Sans-serif">from the Noun Project</text></svg>