<svg xmlns="http://www.w3.org/2000/svg" viewBox="0 0 32 40" x="0px" y="0px"><g><path d="M16.9566,26.5425H15.0434a.99646.99646,0,0,0,0,1.99291h1.9132A.99657.99657,0,0,0,16.9566,26.5425ZM16,25.23714c3.62157-.06782,6.64163-.5945,9.35672-2.46124v3.1189c0,1.86337-3.84632,3.946-9.35672,3.946s-9.35672-2.08259-9.35672-3.946V22.7759C9.34851,24.647,12.38864,25.165,16,25.23714Zm0-6.59653c3.70219-.07694,6.65529-.62147,9.35672-2.46125v3.06908c-.90091,5.27408-17.79624,5.30047-18.71359.00017l.00015-3.05928C9.36341,18.046,12.37848,18.57238,16,18.64061Zm1.95305,2.30181a.99938.99938,0,0,0-.99645-.99646H15.0434a.99646.99646,0,0,0,0,1.99291h1.9132A.99938.99938,0,0,0,17.95305,20.94242Zm-.99645-7.62288H15.0434a.99646.99646,0,0,0,0,1.99291h1.9132A.99657.99657,0,0,0,16.9566,13.31954ZM9.32375,10.9679c4.57867,1.62861,11.88264,1.57637,16.033-1.37511v3.05912c-.905,5.28507-17.81028,5.28689-18.71358.00015l.00014-3.05927A10.73794,10.73794,0,0,0,9.32375,10.9679Zm16.033-4.89259C24.15251,11.26315,9.62126,11.02525,7.0319,7.13155c-1.519-2.639,2.72273-4.81634,8.968-4.97237C21.4805,2.15924,25.31686,4.21193,25.35672,6.07531Z"/></g><text x="0" y="47" fill="#000000" font-size="5px" font-weight="bold" font-family="'Helvetica Neue', Helvetica, Arial-Unicode, Arial, Sans-serif">Created by Dicky Prayudawanto</text><text x="0" y="52" fill="#000000" font-size="5px" font-weight="bold" font-family="'Helvetica Neue', Helvetica, Arial-Unicode, Arial, Sans-serif">from the Noun Project</text></svg>